# xmcd
#
# Track frame offsets:
#	150
#	12569
#	26823
#	47291
#	62681
#	75028
#	89085
#	105813
#	120640
#	131944
#	147836
#	162125
#	176632
#	195183
#	214360
#	228507
#	244164
#	257558
#	274379
#	288306
#	303913
#	319593
#	328794
#	339406
#	347784
#	349971
#	351243
#	353169
#
# Disc length: 4715 seconds
#
# Revision: 1
# Processed by: cddbd v1.5.2PL0 Copyright (c) Steve Scherf et al.
# Submitted via: audiograbber 1.83.01
#
DISCID=a112691c
DTITLE=Country Hotdisc - Country Hotdisc 140
DYEAR=2010
DGENRE=Country
TTITLE0=Still In The Game  - John Brannen
TTITLE1=Between Now And Whenever  - Belle Cannon
TTITLE2=This Ole House - Brady,stewart, Green and Young
TTITLE3=Kentucky Rain  - Gary Curtis
TTITLE4=The Comeback Trail  - Bill Durham 
TTITLE5=How Girls Do It In The South  - Ronica Coldiron
TTITLE6=Soak It Up  - David Bradley
TTITLE7=All I Have To Offer You Is Me - Aubrey Lovejoy
TTITLE8=Walking In The Sun  - Ally Harron
TTITLE9=Cowboy´s Prayer  - R W Hampton
TTITLE10=Jalapeñas  - The Bellamy Brothers
TTITLE11=First Call After Last Call  - Jesse And Noah
TTITLE12=Ride Along (the Outlaw Song) - Owen Moore
TTITLE13=Yippee Ii Yippee Aa  - Dough Atkins
TTITLE14=Don´t Blame Love  - Ronnie Baker
TTITLE15=News  - Michael Peterson
TTITLE16=Last Train To Clarksville  - The Grascals
TTITLE17=53  - Jane Kirk
TTITLE18=Here Where It All Began  - Slim Whitman
TTITLE19=Giving Water To The Drowing Man  - The Dawgs
TTITLE20=Are You The One - Guy Penrod
TTITLE21=Blue Moon Of Kentucky - Elvis Presley
TTITLE22=When My Blue Moon Turn To Gold Again - Elvis Presley
TTITLE23=Baby I Don´t Care  - Elvis Presley
TTITLE24=Generick Radio Liners - Gary Curtis
TTITLE25=Talkin Bout His New Single  - Gary Curtis
TTITLE26=Talking Bout His Nomation For The Bcma Awards  - Gary Curtis
TTITLE27=Talkin Bout His Front Cover Feature In Maverick Magazine  - Gary Curti
TTITLE27=s
EXTD=
EXTT0=
EXTT1=
EXTT2=
EXTT3=
EXTT4=
EXTT5=
EXTT6=
EXTT7=
EXTT8=
EXTT9=
EXTT10=
EXTT11=
EXTT12=
EXTT13=
EXTT14=
EXTT15=
EXTT16=
EXTT17=
EXTT18=
EXTT19=
EXTT20=
EXTT21=
EXTT22=
EXTT23=
EXTT24=
EXTT25=
EXTT26=
EXTT27=
PLAYORDER=
